HIERARCHY
ROOT Hips
{
  OFFSET 263.056 91.6644 -274.608
  CHANNELS 6 Xposition Yposition Zposition Zrotation Xrotation Yrotation
  JOINT LeftUpLeg
  {
    OFFSET 8.64259 1.95398 -2.38835
    CHANNELS 3 Zrotation Xrotation Yrotation
    JOINT LeftLeg
    {
      OFFSET 43.7702 0 0
      CHANNELS 3 Zrotation Xrotation Yrotation
      JOINT LeftFoot
      {
        OFFSET 40.6238 0 0
        CHANNELS 3 Zrotation Xrotation Yrotation
        JOINT LeftToeBase
        {
          OFFSET 12.7242 0 0
          CHANNELS 3 Zrotation Xrotation Yrotation
          End Site
          {
            OFFSET 0 0 0
          }
        }
      }
    }
  }
  JOINT RightUpLeg
  {
    OFFSET -8.2249 1.95398 -2.59336
    CHANNELS 3 Zrotation Xrotation Yrotation
    JOINT RightLeg
    {
      OFFSET 43.5653 0 0
      CHANNELS 3 Zrotation Xrotation Yrotation
      JOINT RightFoot
      {
        OFFSET 40.6238 0 0
        CHANNELS 3 Zrotation Xrotation Yrotation
        JOINT RightToeBase
        {
          OFFSET 12.7242 0 0
          CHANNELS 3 Zrotation Xrotation Yrotation
          End Site
          {
            OFFSET 0 0 0
          }
        }
      }
    }
  }
  JOINT Spine
  {
    OFFSET 0.165834 0.87714 6.61349
    CHANNELS 3 Zrotation Xrotation Yrotation
    JOINT Spine1
    {
      OFFSET 7.38963 1.71661e-005 0
      CHANNELS 3 Zrotation Xrotation Yrotation
      JOINT Spine2
      {
        OFFSET 11.9445 1.14441e-005 0
        CHANNELS 3 Zrotation Xrotation Yrotation
        JOINT Spine3
        {
          OFFSET 14.7254 4.19617e-005 0
          CHANNELS 3 Zrotation Xrotation Yrotation
          JOINT Spine4
          {
            OFFSET 10.9679 0 0
            CHANNELS 3 Zrotation Xrotation Yrotation
            JOINT RightShoulder
            {
              OFFSET 2.46616 -1.6653 3.69651
              CHANNELS 3 Zrotation Xrotation Yrotation
              JOINT RightArm
              {
                OFFSET 13.0012 0 0
                CHANNELS 3 Zrotation Xrotation Yrotation
                JOINT RightForeArm
                {
                  OFFSET 28.7848 1.52588e-005 0
                  CHANNELS 3 Zrotation Xrotation Yrotation
                  JOINT RightHand
                  {
                    OFFSET 26.5688 1.52588e-005 0
                    CHANNELS 3 Zrotation Xrotation Yrotation
                    End Site
                    {
                      OFFSET 0 0 0
                    }
                  }
                }
              }
            }
            JOINT LeftShoulder
            {
              OFFSET 2.38034 -1.29275 -3.7523
              CHANNELS 3 Zrotation Xrotation Yrotation
              JOINT LeftArm
              {
                OFFSET 16.3182 6.10352e-005 0
                CHANNELS 3 Zrotation Xrotation Yrotation
                JOINT LeftForeArm
                {
                  OFFSET 27.0901 0 0
                  CHANNELS 3 Zrotation Xrotation Yrotation
                  JOINT LeftHand
                  {
                    OFFSET 24.5451 1.52588e-005 0
                    CHANNELS 3 Zrotation Xrotation Yrotation
                    End Site
                    {
                      OFFSET 0 0 0
                    }
                  }
                }
              }
            }
            JOINT Neck
            {
              OFFSET 5.0226 -0.0266342 0
              CHANNELS 3 Zrotation Xrotation Yrotation
              JOINT Head
              {
                OFFSET 6.69364 2.86102e-005 0
                CHANNELS 3 Zrotation Xrotation Yrotation
                End Site
                {
                  OFFSET 0 0 0
                }
              }
            }
          }
        }
      }
    }
  }
}
MOTION
Frames:	18
Frame Time:	0.0416667
-77.0845 94.6825 -84.4689 139.912 -89.0699 139.08 -167.092 11.5386 87.4857 -27.8699 -4.27321 -4.90355 65.7643 16.2925 17.7021 41.6021 13.9455 -2.13134 176.943 10.9756 81.4057 -21.7261 -5.33486 -4.96964 66.6358 -1.68549 -0.857442 44.2817 1.65866 9.5631 -0.37385 8.02519 -90.6892 10.816 -1.06253 -1.27165 -0.855071 -1.11747 -1.22368 -23.3867 -0.631271 -1.53215 -3.3741 -0.631281 -1.53216 82.8393 -49.689 -111.781 13.2326 -35.4924 -13.4493 -25.2428 23.7076 -113.756 -19.1602 -1.331 3.18702 -102.563 -41.0931 56.4068 -33.4753 2.83865 9.60515 8.17876 1.65283 -56.5546 13.962 0.479307 -0.400964 -6.97729 3.11409 -2.14249 13.8235 4.65354 9.30994 
-78.3301 94.9249 -84.5581 159.85 -89.0889 159.098 -167.704 11.1711 88.0822 -26.3545 -2.36456 -4.37568 62.7231 14.5022 21.1138 42.7972 14.9201 -4.01361 176.824 10.1383 82.0483 -20.3438 -5.61004 -4.5463 67.3294 -2.04816 -1.06383 43.3804 1.53542 9.69505 -0.369519 8.00527 -90.6222 10.857 -1.02317 -1.14167 -0.814061 -1.07242 -1.09555 -23.3467 -0.632786 -1.39635 -3.33402 -0.632789 -1.39636 82.2835 -50.3419 -112.377 12.9396 -34.9158 -12.8531 -25.1765 23.7289 -113.676 -19.2146 -1.32871 3.15481 -102.749 -41.1873 56.1634 -32.9362 2.76488 9.53382 8.4129 1.93963 -56.292 14.4202 0.56585 0.0755294 -7.21905 3.27431 -1.91537 13.9817 4.68998 8.5577 
-79.4595 95.2324 -84.6194 179.882 -88.9973 179.045 -167.967 11.0124 88.7089 -26.027 -3.22798 -3.96927 63.2908 13.4286 18.1637 39.9224 11.8707 -5.23809 176.691 9.72942 82.4417 -19.7443 -6.25235 -4.20356 67.3378 -2.07279 -1.07466 43.1049 1.47431 9.3549 -0.371562 8.00533 -90.5547 10.8579 -0.996077 -1.00996 -0.813017 -1.03956 -0.965148 -23.3465 -0.646522 -1.26261 -3.33389 -0.646519 -1.2626 81.9381 -50.7746 -112.732 12.5859 -34.5798 -12.7204 -24.7662 23.4403 -113.935 -19.3069 -1.32976 3.11185 -102.668 -41.4552 56.4172 -32.2576 3.04148 8.98487 8.45653 2.28205 -55.4434 15.0434 0.606376 0.178251 -6.76326 3.33124 -1.43578 13.4276 4.58333 7.96015 
-80.5459 95.5496 -84.7092 -174.615 -88.8248 -175.686 -168.287 10.8976 89.2225 -25.8487 -4.92825 -3.54105 63.881 11.6792 14.0878 38.9873 10.9063 -5.5395 176.556 9.1858 82.73 -18.999 -6.78196 -3.96762 67.3027 -2.11862 -1.10131 43.2145 1.42108 8.3158 -0.391714 8.00833 -90.4615 10.8531 -0.993109 -0.824888 -0.817712 -1.02845 -0.780392 -23.3525 -0.699301 -1.08521 -3.33983 -0.699299 -1.08522 81.6306 -51.28 -113.001 12.2125 -34.4734 -12.9791 -24.6217 23.2122 -113.793 -19.1918 -1.2453 2.62671 -102.799 -41.524 56.2465 -31.5584 3.01338 8.89964 8.02909 2.06766 -54.8147 15.3701 0.623526 0.202536 -6.65425 3.44241 -1.20895 13.5001 4.63927 7.68153 
-81.5687 95.7519 -84.811 -153.297 -88.6226 -154.515 -168.223 10.6249 89.7622 -25.261 -5.63778 -3.39637 64.2017 11.027 12.2512 37.2207 9.12059 -5.87465 176.731 8.92334 83.2065 -18.5239 -7.03895 -3.92841 67.5752 -2.247 -1.17125 42.0385 1.25182 8.11686 -0.36266 7.9888 -90.3968 10.8931 -0.905462 -0.703976 -0.777665 -0.935563 -0.663445 -23.3128 -0.652039 -0.943542 -3.30013 -0.65204 -0.943553 81.4136 -51.2871 -113.317 12.8503 -34.1338 -12.5914 -24.5643 23.3681 -113.799 -18.0543 -1.22253 2.94865 -102.792 -41.5541 56.2729 -31.1735 2.76811 8.90929 8.15971 2.20253 -54.4958 15.1261 0.66116 0.511435 -6.54226 3.50761 -0.641805 13.1351 4.53756 7.02086 
-82.4433 95.9431 -84.842 -147.74 -88.5087 -149.06 -168.226 10.2802 90.242 -24.3381 -5.79035 -3.25755 63.3765 9.9883 11.9164 37.6837 9.50654 -7.2652 176.871 8.72029 83.6321 -18.1642 -6.9671 -3.86021 67.3848 -2.17014 -1.12932 40.6631 1.08547 8.54512 -0.381987 7.97493 -90.3314 10.9215 -0.913792 -0.572924 -0.749274 -0.93812 -0.53216 -23.2851 -0.69936 -0.821061 -3.27242 -0.699372 -0.821084 81.5597 -51.0641 -113.184 13.3433 -34.2666 -12.9451 -24.4722 22.856 -113.686 -18.9567 -1.319 3.18746 -102.122 -41.4337 57.2544 -31.1214 2.63513 8.76745 8.48625 2.50195 -54.3981 14.8483 0.663133 0.602875 -5.82201 3.70777 -0.270067 12.2235 4.58148 6.52974 
-83.2145 96.0455 -84.8908 -142.223 -88.2451 -143.838 -168.284 9.66141 90.4486 -23.2068 -5.6718 -3.17532 62.5726 9.18802 11.9714 38.005 9.82571 -7.16257 176.818 8.77615 83.7308 -18.3226 -7.10397 -3.72403 67.3037 -2.14362 -1.11508 39.519 0.990743 10.4145 -0.358938 7.96192 -90.2936 10.9484 -0.850437 -0.503449 -0.722385 -0.871775 -0.465534 -23.2583 -0.65982 -0.735768 -3.24562 -0.659816 -0.735769 81.6514 -51.0363 -113.06 13.1967 -34.1384 -12.9924 -23.9599 22.6811 -113.697 -18.4758 -1.25409 2.96107 -102.614 -41.7141 56.624 -30.4921 2.30758 8.84396 8.30867 2.27508 -54.1361 14.3263 0.600569 0.338275 -5.97694 3.48994 0.243925 12.2877 4.26025 6.06436 
-83.9231 96.0971 -84.9243 -133.072 -88.007 -134.806 -168.219 9.10882 90.7 -21.9485 -5.84016 -3.17211 62.3554 9.22874 12.4824 37.3825 9.18315 -7.88833 176.982 9.03959 84.0402 -18.6603 -7.30392 -3.70223 67.2814 -2.16336 -1.12811 37.3919 0.674811 11.3011 -0.337172 7.91813 -90.2749 11.0358 -0.79858 -0.470409 -0.635029 -0.818519 -0.434815 -23.1708 -0.620287 -0.688665 -3.15815 -0.620296 -0.688677 81.3987 -51.3088 -113.331 13.062 -34.0578 -12.6609 -23.8183 22.5607 -113.769 -18.4253 -1.18303 2.5173 -102.903 -42.2045 56.4111 -29.9915 1.98466 9.09303 8.52604 2.34811 -54.2969 15.0001 0.679755 0.666626 -6.16299 3.52912 0.651126 12.2645 4.26538 6.07987 
-84.5117 96.2167 -84.9537 -130.888 -87.7481 -133.04 -168.382 8.46232 90.6862 -21.0466 -7.07137 -3.05481 62.381 8.49261 10.8319 36.7791 8.62558 -7.26819 177.055 9.20322 84.0201 -19.0532 -7.41392 -3.8174 66.9096 -2.04009 -1.06139 36.6774 0.564347 11.9106 -0.370819 7.94765 -90.1541 10.9779 -0.809526 -0.229407 -0.692804 -0.818835 -0.193558 -23.2294 -0.703154 -0.462112 -3.21677 -0.703149 -0.462107 80.634 -51.4668 -114.391 12.6958 -33.8917 -13.258 -23.7387 22.3884 -113.666 -19.082 -1.38183 3.50381 -101.891 -41.6861 57.7307 -29.9039 2.10322 8.6435 8.59961 2.52424 -54.07 14.6628 0.629471 0.43482 -5.33578 3.76152 0.242908 11.5382 4.45549 5.82591 
-85.0312 96.2198 -84.9852 -127.541 -87.5481 -129.961 -168.375 7.67648 90.7526 -19.3406 -5.91788 -3.19734 60.9585 8.42962 13.4571 38.3034 9.98135 -9.29025 177.084 9.49594 84.0751 -19.5571 -7.42778 -3.77917 67.2494 -2.16217 -1.1263 35.8919 0.433528 12.9941 -0.339548 7.92417 -90.1768 11.0249 -0.757826 -0.279087 -0.645824 -0.769377 -0.245477 -23.1821 -0.638915 -0.493955 -3.16944 -0.638918 -0.493961 81.0715 -51.1844 -113.857 12.495 -34.0368 -13.4078 -22.9878 22.3096 -113.912 -18.7141 -1.49942 4.38064 -102.632 -42.2517 56.8552 -29.5986 1.51542 8.70993 8.47349 2.22935 -54.0689 14.9859 0.676497 0.65168 -5.17501 3.46942 0.806713 10.9565 4.054 5.58942 
-85.4694 96.289 -84.9272 -123.16 -87.5097 -125.566 -168.404 7.43973 91.0391 -18.5822 -5.87356 -3.22241 60.5655 8.0162 13.783 38.2714 9.96354 -9.10479 177.258 9.59653 84.3953 -19.4875 -7.20449 -3.78884 66.9316 -2.10977 -1.10566 36.0914 0.470766 14.1258 -0.535073 7.89907 -89.9718 11.0766 -1.05195 0.15754 -0.593963 -1.044 0.203685 -23.1325 -1.05067 -0.165934 -3.11981 -1.05067 -0.165944 78.3385 -52.4169 -117.336 12.0494 -34.1826 -13.7892 -23.7051 22.5537 -113.257 -18.6852 -1.31211 3.2332 -98.2074 -40.523 63.0308 -31.4159 2.34931 8.08345 8.8548 2.78007 -54.3615 15.201 0.71759 0.856118 -3.98022 4.61007 -0.387279 9.95304 5.26968 5.80511 
-85.8572 96.3547 -84.9334 -127.036 -87.4203 -129.531 -168.534 6.95317 91.1967 -17.8599 -5.51607 -3.15678 60.0047 7.55518 14.1873 38.2547 9.92758 -9.41746 177.351 9.42869 84.5912 -19.5667 -6.94764 -3.84399 66.7683 -2.08261 -1.09501 35.9465 0.443112 15.0607 -0.389865 7.89093 -90.1481 11.0924 -0.844702 -0.213056 -0.578279 -0.853256 -0.175672 -23.1151 -0.741613 -0.457077 -3.10249 -0.741616 -0.457085 80.2299 -51.5584 -114.94 12.0008 -34.1403 -13.4062 -23.5184 22.5073 -113.589 -18.6628 -1.5968 5.05027 -101.787 -42.0141 58.0633 -29.8812 1.23401 8.77483 8.43221 2.10904 -54.0233 14.6909 0.677296 0.745536 -5.15391 3.79532 1.27424 10.8502 4.31889 5.51379 
-86.2505 96.4325 -84.9476 -132.748 -87.4385 -135.532 -168.81 6.57913 91.1755 -17.4753 -5.85905 -2.97745 59.9157 6.85993 13.0014 37.418 9.27515 -6.71974 177.311 9.32356 84.5833 -19.7184 -6.55994 -3.84764 66.7248 -2.09294 -1.10173 35.641 0.380857 16.1107 -0.378067 7.88974 -90.1866 11.0934 -0.839127 -0.290227 -0.577259 -0.851081 -0.253018 -23.1138 -0.7131 -0.529006 -3.10118 -0.713107 -0.529013 80.7334 -51.2115 -114.342 12.1994 -33.8996 -13.1543 -23.8479 22.4548 -113.313 -18.5647 -1.27053 3.02404 -102.598 -42.45 56.9937 -29.5741 0.883837 8.64931 8.26771 1.94466 -53.6221 14.6159 0.674231 0.747489 -5.46923 3.51244 1.89998 11.1831 3.9901 5.4526 
-86.5973 96.4219 -84.9535 -136.319 -87.6939 -139.219 -168.906 6.15674 91.2087 -16.0144 -4.10652 -3.04236 58.1767 6.4448 15.7735 38.9186 10.69 -7.49367 177.295 9.65069 84.6591 -20.2442 -6.13741 -3.72789 66.9844 -2.16728 -1.13988 35.4939 0.34941 16.5006 -0.400935 7.87229 -90.1944 11.1282 -0.888288 -0.300651 -0.542467 -0.900662 -0.261264 -23.0792 -0.756869 -0.553734 -3.06657 -0.756859 -0.553724 80.671 -51.3809 -114.369 12.0613 -33.8987 -12.967 -23.246 22.2706 -113.635 -18.7291 -1.22993 2.67686 -102.559 -42.3758 57.0189 -29.5074 1.06501 8.544 7.80444 1.6354 -53.5608 15.5241 0.780246 1.15767 -4.97049 3.55547 1.95935 10.4109 3.98827 5.51287 
-86.96 96.4259 -84.9257 -132.27 -87.646 -135.44 -169.073 5.80918 91.1403 -15.0911 -3.42423 -3.04984 57.2289 5.87226 16.598 39.7984 11.5361 -7.5455 177.458 9.93691 84.7107 -20.6777 -5.91595 -3.87885 67.0818 -2.20007 -1.15633 35.7005 0.390846 17.0604 -0.369751 7.84567 -90.1746 11.1817 -0.817003 -0.267479 -0.489013 -0.827984 -0.23127 -23.0256 -0.698848 -0.500667 -3.0129 -0.698846 -0.500671 80.2235 -51.5953 -114.94 12.1662 -33.638 -12.2331 -23.1235 22.1891 -114.009 -18.874 -1.24203 2.6931 -102.513 -42.3239 57.0664 -29.4208 1.11863 8.47372 8.14641 1.99225 -53.4344 15.3232 0.72081 0.833618 -5.02651 3.43535 1.74897 10.5509 3.9003 5.53477 
-87.2716 96.5337 -84.9119 -135.435 -87.802 -138.751 -169.242 5.95369 91.2034 -15.4333 -4.7593 -2.82301 57.7599 5.20068 14.2168 39.0562 10.8121 -7.63658 177.347 9.86492 84.6965 -20.5296 -5.94026 -3.76625 66.93 -2.199 -1.16095 35.4502 0.337729 17.0188 -0.379967 7.84057 -90.1804 11.1923 -0.840042 -0.276611 -0.478404 -0.851405 -0.239379 -23.015 -0.718072 -0.516301 -3.00238 -0.718067 -0.5163 80.5095 -51.4373 -114.584 12.3396 -33.8187 -12.2675 -23.1394 22.0449 -113.792 -19.0688 -1.2434 2.62364 -102.498 -42.2626 57.0606 -29.4441 1.21999 8.47341 8.34791 2.21653 -53.4248 15.3026 0.622324 0.213753 -4.55143 3.43428 1.65025 10.1593 3.9299 5.94835 
-87.5042 96.5889 -84.9195 -140.618 -87.8583 -144.016 -169.245 6.1573 91.3986 -16.0949 -5.92143 -2.71991 58.652 4.62998 11.3161 38.0757 9.91187 -6.87229 177.361 9.68367 84.7822 -20.3762 -5.58502 -3.77602 66.8941 -2.25241 -1.19606 35.3497 0.314715 17.3607 -0.376341 7.83726 -90.2047 11.1913 -0.844171 -0.324939 -0.479424 -0.857657 -0.287477 -23.0159 -0.707499 -0.563631 -3.00324 -0.707491 -0.563634 80.5617 -51.5942 -114.448 12.2426 -33.7559 -11.9232 -22.9746 22.1796 -113.919 -18.5806 -1.24969 2.85663 -102.726 -42.3302 56.741 -29.3182 1.27434 8.54016 8.60392 2.40288 -53.739 15.7326 0.685588 0.498519 -4.44501 3.2507 2.14702 10.0197 3.63149 5.45401 
-87.7097 96.5236 -84.9221 -138.043 -87.7772 -141.548 -169.236 5.02105 91.3252 -13.5773 -3.93962 -2.91338 57.0171 5.3954 15.6858 39.3739 10.9993 -9.1085 177.373 10.2157 84.7871 -21.4373 -5.63827 -3.73921 67.2315 -2.28619 -1.20529 35.2388 0.291388 17.2461 -0.364259 7.83502 -90.2138 11.2031 -0.824345 -0.34457 -0.467653 -0.838712 -0.307967 -23.004 -0.682681 -0.576396 -2.99134 -0.682677 -0.576405 80.1548 -51.5256 -115.067 12.4578 -33.6509 -11.2432 -22.8375 22.0707 -114.235 -18.6981 -1.27315 2.95296 -102.776 -42.402 56.6991 -29.2998 1.09957 8.62382 8.67332 2.38223 -53.8772 15.866 0.680797 0.431514 -4.55029 3.24126 2.35973 10.2065 3.58954 5.26622 
